<svg xmlns="http://www.w3.org/2000/svg" xmlns:xlink="http://www.w3.org/1999/xlink" width="888" height="889.56"><rect width="888" height="889.56" rx="5" ry="5" class="a"/><svg y="0%" x="0%"><circle cx="20" cy="20" r="6" fill="#ff5f58"/><circle cx="40" cy="20" r="6" fill="#ffbd2e"/><circle cx="60" cy="20" r="6" fill="#18c132"/></svg><svg height="781.56" viewBox="0 0 80 78.156" width="800" x="39" xmlns="http://www.w3.org/2000/svg" xmlns:xlink="http://www.w3.org/1999/xlink" y="74"><style>@keyframes p{0%{transform:translateX(0)}.1%{transform:translateX(-80px)}99.9%{transform:translateX(-160px)}to{transform:translateX(-400px)}}.a{fill:rgb(25,29,39,242)}.f,.g{fill:#e0e0e0;white-space:pre}.g{fill:#7ccbcd}.h,.i{font-weight:700}.h{fill:#7ccbcd;white-space:pre}.i{fill:#ededed;text-decoration:underline}.i,.j,.k,.l,.m{white-space:pre}.j{fill:#ededed;font-weight:700}.k,.l,.m{fill:#dee5eb}.l,.m{fill:#6caa71}.m{fill:#bd7bcd}</style><g font-family="Monaco,Consolas,Menlo,'Bitstream Vera Sans Mono','Powerline Symbols',monospace" font-size="1.67"><defs><symbol id="1"><text y="1.67" class="f">y</text></symbol><symbol id="2"><text x="8.016" y="1.67" class="g">╱★╲</text></symbol><symbol id="3"><text x="7.014" y="1.67" class="g">╱</text><text x="11.022" y="1.67" class="g">╲</text><text x="17.034" y="1.67" class="f">neofetch</text><text x="26.052" y="1.67" class="f">for</text><text x="30.06" y="1.67" class="f">your</text><text x="35.07" y="1.67" class="f">codebase</text></symbol><symbol id="4"><text x="6.012" y="1.67" class="g">╱</text><text x="12.024" y="1.67" class="g">╲</text></symbol><symbol id="5"><text x="5.01" y="1.67" class="h">╱</text><text x="8.016" y="1.67" class="h">SCOPE</text><text x="14.028" y="1.67" class="h">╲</text><text x="25.05" y="1.67" class="f">v1.0.1</text></symbol><symbol id="6"><text x="4.008" y="1.67" class="g">╱___________╲</text></symbol><symbol id="7"><text x="2.004" y="1.67" class="i">Project</text></symbol><symbol id="8"><text y="1.67" class="f">────────────────────────────────────────────────</text></symbol><symbol id="9"><text x="2.004" y="1.67" class="j">Name</text><text x="16.032" y="1.67" class="k">@azerdsq131/scope</text></symbol><symbol id="10"><text x="2.004" y="1.67" class="j">Packages</text><text x="16.032" y="1.67" class="g">via</text><text x="20.04" y="1.67" class="g">npm</text></symbol><symbol id="11"><text x="2.004" y="1.67" class="i">Tech</text><text x="7.014" y="1.67" class="i">Stack</text></symbol><symbol id="12"><text x="2.004" y="1.67" class="j">Languages</text><text x="16.032" y="1.67" class="l">Markdown</text><text x="24.048" y="1.67" class="f">,</text><text x="26.052" y="1.67" class="l">HTML</text><text x="30.06" y="1.67" class="f">,</text><text x="32.064" y="1.67" class="l">JSON</text><text x="36.072" y="1.67" class="f">,</text><text x="38.076" y="1.67" class="l">TypeScript</text></symbol><symbol id="13"><text x="2.004" y="1.67" class="j">Tools</text><text x="16.032" y="1.67" class="m">GitHub</text><text x="23.046" y="1.67" class="m">Actions</text></symbol><symbol id="14"><text x="2.004" y="1.67" class="i">Codebase</text></symbol><symbol id="15"><text x="2.004" y="1.67" class="j">Files</text><text x="16.032" y="1.67" class="k">16</text><text x="19.038" y="1.67" class="f">across</text><text x="26.052" y="1.67" class="k">4</text><text x="28.056" y="1.67" class="f">dirs</text></symbol><symbol id="16"><text x="3.006" y="1.67" class="g">████████████████████</text><text x="24.048" y="1.67" class="k">9</text><text x="26.052" y="1.67" class="f">(56%)</text><text x="32.064" y="1.67" class="f">.ts</text></symbol><symbol id="17"><text x="3.006" y="1.67" class="g">███████░░░░░░░░░░░░░</text><text x="24.048" y="1.67" class="k">3</text><text x="26.052" y="1.67" class="f">(19%)</text><text x="32.064" y="1.67" class="f">.json</text></symbol><symbol id="18"><text x="3.006" y="1.67" class="g">████░░░░░░░░░░░░░░░░</text><text x="24.048" y="1.67" class="k">2</text><text x="26.052" y="1.67" class="f">(13%)</text><text x="32.064" y="1.67" class="f">.md</text></symbol><symbol id="19"><text x="3.006" y="1.67" class="g">██░░░░░░░░░░░░░░░░░░</text><text x="24.048" y="1.67" class="k">1</text><text x="26.052" y="1.67" class="f">(6%)</text><text x="31.062" y="1.67" class="f">(no</text><text x="35.07" y="1.67" class="f">extension)</text></symbol><symbol id="20"><text x="3.006" y="1.67" class="g">██░░░░░░░░░░░░░░░░░░</text><text x="24.048" y="1.67" class="k">1</text><text x="26.052" y="1.67" class="f">(6%)</text><text x="31.062" y="1.67" class="f">.html</text></symbol><symbol id="21"><text x="2.004" y="1.67" class="j">Deps</text><text x="16.032" y="1.67" class="k">2</text><text x="18.036" y="1.67" class="f">prod,</text><text x="24.048" y="1.67" class="k">3</text><text x="26.052" y="1.67" class="f">dev</text></symbol><symbol id="22"><text x="2.004" y="1.67" class="j">Top</text><text x="6.012" y="1.67" class="j">files</text><text x="16.032" y="1.67" class="f">package-lock.json</text><text x="34.068" y="1.67" class="k">587</text><text x="38.076" y="1.67" class="k">lines</text><text x="44.088" y="1.67" class="f">│</text><text x="46.092" y="1.67" class="f">src/detectors/techstack.ts</text><text x="73.146" y="1.67" class="k">266</text><text x="77.154" y="1.67" class="k">lin</text></symbol><symbol id="23"><text y="1.67" class="k">es</text><text x="3.006" y="1.67" class="f">│</text><text x="5.01" y="1.67" class="f">README.md</text><text x="15.03" y="1.67" class="k">220</text><text x="19.038" y="1.67" class="k">lines</text></symbol><symbol id="24"><text x="2.004" y="1.67" class="i">Git</text></symbol><symbol id="25"><text x="2.004" y="1.67" class="j">Branch</text><text x="16.032" y="1.67" class="l">main</text></symbol><symbol id="26"><text x="2.004" y="1.67" class="j">Commits</text><text x="16.032" y="1.67" class="k">6</text></symbol><symbol id="27"><text x="2.004" y="1.67" class="j">Contributors</text><text x="16.032" y="1.67" class="k">1</text></symbol><symbol id="28"><text x="2.004" y="1.67" class="j">Branches</text><text x="16.032" y="1.67" class="k">2</text></symbol><symbol id="29"><text x="2.004" y="1.67" class="j">Tags</text><text x="16.032" y="1.67" class="k">1</text></symbol><symbol id="30"><text x="2.004" y="1.67" class="j">Head</text><text x="16.032" y="1.67" class="k">Add</text><text x="20.04" y="1.67" class="k">launch</text><text x="27.054" y="1.67" class="k">kit</text><text x="31.062" y="1.67" class="k">with</text><text x="36.072" y="1.67" class="k">promotion</text><text x="46.092" y="1.67" class="k">instructions</text></symbol><symbol id="31"><text x="2.004" y="1.67" class="j">Latest</text><text x="16.032" y="1.67" class="f">2m</text><text x="19.038" y="1.67" class="f">ago</text></symbol><symbol id="32"><text x="2.004" y="1.67" class="j">Born</text><text x="16.032" y="1.67" class="f">6/30/2026</text></symbol><symbol id="33"><text x="2.004" y="1.67" class="j">Churn</text><text x="16.032" y="1.67" class="l">+2014</text><text x="22.044" y="1.67" class="f">/</text><text x="24.048" y="1.67" style="white-space:pre" fill="#b45648">-5</text><text x="28.056" y="1.67" class="f">(100%</text><text x="34.068" y="1.67" class="f">added)</text></symbol><symbol id="a"><path fill="transparent" d="M0 0h80v37H0z"/></symbol></defs><path class="a" d="M0 0h80v78.156H0z"/><g style="animation-duration:.241097s;animation-iteration-count:infinite;animation-name:p;animation-timing-function:steps(1,end)"><svg width="480"><svg><use xlink:href="#a"/></svg><svg x="80"><use xlink:href="#a"/><use xlink:href="#1"/></svg><svg x="160"><use xlink:href="#a"/><use xlink:href="#1"/><use xlink:href="#2" y="4.342"/><use xlink:href="#3" y="6.513"/><use xlink:href="#4" y="8.684"/><use xlink:href="#5" y="10.855"/><use xlink:href="#6" y="13.026"/><use xlink:href="#7" y="17.368"/><use xlink:href="#8" y="19.539"/><use xlink:href="#9" y="21.71"/><use xlink:href="#10" y="23.881"/><use xlink:href="#8" y="26.052"/><use xlink:href="#11" y="28.223"/><use xlink:href="#8" y="30.394"/><use xlink:href="#12" y="32.565"/><use xlink:href="#13" y="34.736"/><text y="38.577" class="f">──────</text></svg><svg x="240"><use xlink:href="#a"/><use xlink:href="#1"/><use xlink:href="#2" y="4.342"/><use xlink:href="#3" y="6.513"/><use xlink:href="#4" y="8.684"/><use xlink:href="#5" y="10.855"/><use xlink:href="#6" y="13.026"/><use xlink:href="#7" y="17.368"/><use xlink:href="#8" y="19.539"/><use xlink:href="#9" y="21.71"/><use xlink:href="#10" y="23.881"/><use xlink:href="#8" y="26.052"/><use xlink:href="#11" y="28.223"/><use xlink:href="#8" y="30.394"/><use xlink:href="#12" y="32.565"/><use xlink:href="#13" y="34.736"/><use xlink:href="#8" y="36.907"/><use xlink:href="#14" y="39.078"/><use xlink:href="#8" y="41.249"/><use xlink:href="#15" y="43.42"/><use xlink:href="#16" y="47.762"/><use xlink:href="#17" y="49.933"/><use xlink:href="#18" y="52.104"/><use xlink:href="#19" y="54.275"/><use xlink:href="#20" y="56.446"/><text x="2.004" y="62.458" class="j">Deps</text><text x="16.032" y="62.458" class="k">2</text></svg><svg x="320"><use xlink:href="#a"/><use xlink:href="#6"/><use xlink:href="#7" y="4.342"/><use xlink:href="#8" y="6.513"/><use xlink:href="#9" y="8.684"/><use xlink:href="#10" y="10.855"/><use xlink:href="#8" y="13.026"/><use xlink:href="#11" y="15.197"/><use xlink:href="#8" y="17.368"/><use xlink:href="#12" y="19.539"/><use xlink:href="#13" y="21.71"/><use xlink:href="#8" y="23.881"/><use xlink:href="#14" y="26.052"/><use xlink:href="#8" y="28.223"/><use xlink:href="#15" y="30.394"/><use xlink:href="#16" y="34.736"/><use xlink:href="#17" y="36.907"/><use xlink:href="#18" y="39.078"/><use xlink:href="#19" y="41.249"/><use xlink:href="#20" y="43.42"/><use xlink:href="#21" y="47.762"/><use xlink:href="#22" y="49.933"/><use xlink:href="#23" y="52.104"/><use xlink:href="#8" y="54.275"/><use xlink:href="#24" y="56.446"/><use xlink:href="#8" y="58.617"/><use xlink:href="#25" y="60.788"/><use xlink:href="#26" y="62.959"/><use xlink:href="#27" y="65.13"/><use xlink:href="#28" y="67.301"/><use xlink:href="#29" y="69.472"/><use xlink:href="#30" y="71.643"/><use xlink:href="#31" y="73.814"/><use xlink:href="#32" y="75.985"/><use xlink:href="#33" y="78.156"/></svg><svg x="400"><use xlink:href="#a"/><use xlink:href="#11"/><use xlink:href="#8" y="2.171"/><use xlink:href="#12" y="4.342"/><use xlink:href="#13" y="6.513"/><use xlink:href="#8" y="8.684"/><use xlink:href="#14" y="10.855"/><use xlink:href="#8" y="13.026"/><use xlink:href="#15" y="15.197"/><use xlink:href="#16" y="19.539"/><use xlink:href="#17" y="21.71"/><use xlink:href="#18" y="23.881"/><use xlink:href="#19" y="26.052"/><use xlink:href="#20" y="28.223"/><use xlink:href="#21" y="32.565"/><use xlink:href="#22" y="34.736"/><use xlink:href="#23" y="36.907"/><use xlink:href="#8" y="39.078"/><use xlink:href="#24" y="41.249"/><use xlink:href="#8" y="43.42"/><use xlink:href="#25" y="45.591"/><use xlink:href="#26" y="47.762"/><use xlink:href="#27" y="49.933"/><use xlink:href="#28" y="52.104"/><use xlink:href="#29" y="54.275"/><use xlink:href="#30" y="56.446"/><use xlink:href="#31" y="58.617"/><use xlink:href="#32" y="60.788"/><use xlink:href="#33" y="62.959"/><text x="2.004" y="66.8" class="j">Size</text><text x="16.032" y="66.8" class="f">0</text><use xlink:href="#8" y="67.301"/><text x="2.004" y="73.313" class="f">Generated</text><text x="12.024" y="73.313" class="f">6/30/2026,</text><text x="23.046" y="73.313" class="f">11:00:29</text><text x="32.064" y="73.313" class="f">PM</text><text x="2.004" y="75.484" class="f">⭐</text><text x="4.008" y="75.484" class="f">github.com/AZERDSQ131/scope</text></svg></svg></g></g></svg></svg>